<svg width="738" height="168" viewBox="0 0 738 168" fill="none" xmlns="http://www.w3.org/2000/svg">
<path d="M488.81 140.322C535.132 159.788 674.512 173.355 664.936 151.911C651.254 121.273 591.805 148.125 655.8 151.438C706.811 154.078 719.89 144.739 720.19 138.942" stroke="black" stroke-width="5" stroke-linecap="round" stroke-linejoin="round" stroke-dasharray="2.5 2.5"/>
<rect x="418" y="17" width="211" height="38" fill="#C7B9FF" fill-opacity="0.85"/>
<rect x="124" y="96" width="341" height="41" fill="#FFC700" fill-opacity="0.85"/>
<path d="M120.442 46L109.977 13.63H118.167L121.482 25.525C122.825 30.6383 123.973 34.885 124.927 38.265L128.112 26.63L131.882 13.63H141.177L145.077 27.215C146.333 31.8517 147.352 35.4917 148.132 38.135L151.772 24.81L155.022 13.63H163.147L152.552 46H143.127L138.967 31.31L137.147 24.81L136.237 21.56C135.803 23.2933 134.893 26.5217 133.507 31.245L129.282 46H120.442ZM168.908 46V0.499997H176.838V12.33V18.765C177.748 17.1617 179.004 15.775 180.608 14.605C182.298 13.305 184.594 12.655 187.498 12.655C190.964 12.655 193.586 13.695 195.363 15.775C197.139 17.855 198.028 20.7583 198.028 24.485V46H190.098V26.24C190.098 21.6033 188.148 19.285 184.248 19.285C181.994 19.285 180.326 19.9567 179.243 21.3C177.639 23.25 176.838 26.5433 176.838 31.18V46H168.908ZM205.101 29.815C205.101 24.745 206.574 20.6283 209.521 17.465C212.511 14.2583 216.259 12.655 220.766 12.655C225.359 12.655 229.043 14.215 231.816 17.335C234.589 20.4117 235.976 24.3983 235.976 29.295C235.976 29.9883 235.933 30.8117 235.846 31.765H212.966C213.096 34.755 213.876 37.0083 215.306 38.525C216.736 39.9983 218.621 40.735 220.961 40.735C224.514 40.735 227.158 38.785 228.891 34.885L236.041 37.55C233.528 43.8333 228.479 46.975 220.896 46.975C216.086 46.975 212.251 45.4583 209.391 42.425C206.531 39.3483 205.101 35.145 205.101 29.815ZM213.226 25.915H227.981C227.851 23.6183 227.136 21.82 225.836 20.52C224.579 19.22 222.889 18.57 220.766 18.57C218.773 18.57 217.083 19.22 215.696 20.52C214.353 21.82 213.529 23.6183 213.226 25.915ZM243.493 46V13.63H251.293V20.78C252.116 18.8733 253.416 17.0967 255.193 15.45C256.926 13.8467 259.396 13.045 262.603 13.045C263.253 13.045 263.968 13.11 264.748 13.24V21.365C263.751 21.1917 262.581 21.105 261.238 21.105C257.814 21.105 255.323 21.9933 253.763 23.77C252.203 25.5467 251.423 28.4067 251.423 32.35V46H243.493ZM267.308 29.815C267.308 24.745 268.781 20.6283 271.728 17.465C274.718 14.2583 278.466 12.655 282.973 12.655C287.566 12.655 291.25 14.215 294.023 17.335C296.796 20.4117 298.183 24.3983 298.183 29.295C298.183 29.9883 298.14 30.8117 298.053 31.765H275.173C275.303 34.755 276.083 37.0083 277.513 38.525C278.943 39.9983 280.828 40.735 283.168 40.735C286.721 40.735 289.365 38.785 291.098 34.885L298.248 37.55C295.735 43.8333 290.686 46.975 283.103 46.975C278.293 46.975 274.458 45.4583 271.598 42.425C268.738 39.3483 267.308 35.145 267.308 29.815ZM275.433 25.915H290.188C290.058 23.6183 289.343 21.82 288.043 20.52C286.786 19.22 285.096 18.57 282.973 18.57C280.98 18.57 279.29 19.22 277.903 20.52C276.56 21.82 275.736 23.6183 275.433 25.915ZM326.106 46L315.641 13.63H323.831L327.146 25.525C328.489 30.6383 329.637 34.885 330.591 38.265L333.776 26.63L337.546 13.63H346.841L350.741 27.215C351.997 31.8517 353.016 35.4917 353.796 38.135L357.436 24.81L360.686 13.63H368.811L358.216 46H348.791L344.631 31.31L342.811 24.81L341.901 21.56C341.467 23.2933 340.557 26.5217 339.171 31.245L334.946 46H326.106ZM372.362 29.815C372.362 24.745 373.835 20.6283 376.782 17.465C379.772 14.2583 383.52 12.655 388.027 12.655C392.62 12.655 396.303 14.215 399.077 17.335C401.85 20.4117 403.237 24.3983 403.237 29.295C403.237 29.9883 403.193 30.8117 403.107 31.765H380.227C380.357 34.755 381.137 37.0083 382.567 38.525C383.997 39.9983 385.882 40.735 388.222 40.735C391.775 40.735 394.418 38.785 396.152 34.885L403.302 37.55C400.788 43.8333 395.74 46.975 388.157 46.975C383.347 46.975 379.512 45.4583 376.652 42.425C373.792 39.3483 372.362 35.145 372.362 29.815ZM380.487 25.915H395.242C395.112 23.6183 394.397 21.82 393.097 20.52C391.84 19.22 390.15 18.57 388.027 18.57C386.033 18.57 384.343 19.22 382.957 20.52C381.613 21.82 380.79 23.6183 380.487 25.915ZM426.298 8.495V0.434998H434.748V8.495H426.298ZM426.623 46V13.63H434.488V46H426.623ZM445.704 42.295C443.19 39.1317 441.934 34.9717 441.934 29.815C441.934 24.6583 443.19 20.52 445.704 17.4C448.217 14.2367 451.532 12.655 455.649 12.655C457.989 12.655 460.047 13.175 461.824 14.215C463.644 15.255 465.052 16.5767 466.049 18.18V12.33V0.499997H473.979V46H466.309V41.45C465.269 43.0533 463.839 44.375 462.019 45.415C460.199 46.455 458.075 46.975 455.649 46.975C451.532 46.975 448.217 45.415 445.704 42.295ZM466.439 29.815C466.439 26.305 465.702 23.6183 464.229 21.755C462.755 19.8483 460.762 18.895 458.249 18.895C455.692 18.895 453.699 19.805 452.269 21.625C450.839 23.4017 450.124 26.1317 450.124 29.815C450.124 37.095 452.832 40.735 458.249 40.735C460.762 40.735 462.755 39.8033 464.229 37.94C465.702 36.0767 466.439 33.3683 466.439 29.815ZM481.414 29.815C481.414 24.745 482.888 20.6283 485.834 17.465C488.824 14.2583 492.573 12.655 497.079 12.655C501.673 12.655 505.356 14.215 508.129 17.335C510.903 20.4117 512.289 24.3983 512.289 29.295C512.289 29.9883 512.246 30.8117 512.159 31.765H489.279C489.409 34.755 490.189 37.0083 491.619 38.525C493.049 39.9983 494.934 40.735 497.274 40.735C500.828 40.735 503.471 38.785 505.204 34.885L512.354 37.55C509.841 43.8333 504.793 46.975 497.209 46.975C492.399 46.975 488.564 45.4583 485.704 42.425C482.844 39.3483 481.414 35.145 481.414 29.815ZM489.539 25.915H504.294C504.164 23.6183 503.449 21.82 502.149 20.52C500.893 19.22 499.203 18.57 497.079 18.57C495.086 18.57 493.396 19.22 492.009 20.52C490.666 21.82 489.843 23.6183 489.539 25.915ZM517.856 37.68C517.856 33.52 519.698 30.5083 523.381 28.645C527.021 26.7383 531.961 25.4817 538.201 24.875V23.77C538.201 20.39 536.229 18.7 532.286 18.7C528.213 18.7 525.656 20.4983 524.616 24.095L517.401 22.21C517.748 19.61 519.264 17.3783 521.951 15.515C524.638 13.6083 528.083 12.655 532.286 12.655C536.749 12.655 540.151 13.695 542.491 15.775C544.874 17.8117 546.066 20.8017 546.066 24.745V37.81C546.066 38.6333 546.174 39.175 546.391 39.435C546.651 39.6517 547.193 39.76 548.016 39.76H551.071V46H544.961C541.408 46 539.458 44.3967 539.111 41.19C536.554 45.0467 532.914 46.975 528.191 46.975C525.158 46.975 522.666 46.13 520.716 44.44C518.809 42.75 517.856 40.4967 517.856 37.68ZM538.201 32.675V30.075C534.128 30.5083 531.051 31.2667 528.971 32.35C526.934 33.39 525.916 34.9067 525.916 36.9C525.916 38.2 526.328 39.2183 527.151 39.955C528.018 40.6483 529.231 40.995 530.791 40.995C532.914 40.995 534.669 40.28 536.056 38.85C537.486 37.3767 538.201 35.3183 538.201 32.675ZM558.476 37.745V19.805H551.456V13.63H558.476V3.49H566.406V13.63H574.986V19.805H566.406V36.51C566.406 38.5033 567.403 39.5 569.396 39.5H576.286V46H566.666C564.066 46 562.051 45.285 560.621 43.855C559.191 42.3817 558.476 40.345 558.476 37.745ZM579.613 29.815C579.613 24.745 581.086 20.6283 584.033 17.465C587.023 14.2583 590.771 12.655 595.278 12.655C599.871 12.655 603.554 14.215 606.328 17.335C609.101 20.4117 610.488 24.3983 610.488 29.295C610.488 29.9883 610.444 30.8117 610.358 31.765H587.478C587.608 34.755 588.388 37.0083 589.818 38.525C591.248 39.9983 593.133 40.735 595.473 40.735C599.026 40.735 601.669 38.785 603.403 34.885L610.553 37.55C608.039 43.8333 602.991 46.975 595.408 46.975C590.598 46.975 586.763 45.4583 583.903 42.425C581.043 39.3483 579.613 35.145 579.613 29.815ZM587.738 25.915H602.493C602.363 23.6183 601.648 21.82 600.348 20.52C599.091 19.22 597.401 18.57 595.278 18.57C593.284 18.57 591.594 19.22 590.208 20.52C588.864 21.82 588.041 23.6183 587.738 25.915ZM3.2516 117.68C3.2516 113.52 5.09327 110.508 8.7766 108.645C12.4166 106.738 17.3566 105.482 23.5966 104.875V103.77C23.5966 100.39 21.6249 98.7 17.6816 98.7C13.6083 98.7 11.0516 100.498 10.0116 104.095L2.7966 102.21C3.14327 99.61 4.65994 97.3783 7.3466 95.515C10.0333 93.6083 13.4783 92.655 17.6816 92.655C22.1449 92.655 25.5466 93.695 27.8866 95.775C30.2699 97.8117 31.4616 100.802 31.4616 104.745V117.81C31.4616 118.633 31.5699 119.175 31.7866 119.435C32.0466 119.652 32.5883 119.76 33.4116 119.76H36.4666V126H30.3566C26.8033 126 24.8533 124.397 24.5066 121.19C21.9499 125.047 18.3099 126.975 13.5866 126.975C10.5533 126.975 8.0616 126.13 6.1116 124.44C4.20494 122.75 3.2516 120.497 3.2516 117.68ZM23.5966 112.675V110.075C19.5233 110.508 16.4466 111.267 14.3666 112.35C12.3299 113.39 11.3116 114.907 11.3116 116.9C11.3116 118.2 11.7233 119.218 12.5466 119.955C13.4133 120.648 14.6266 120.995 16.1866 120.995C18.3099 120.995 20.0649 120.28 21.4516 118.85C22.8816 117.377 23.5966 115.318 23.5966 112.675ZM41.6371 126V93.63H49.3721V98.765C50.2821 97.075 51.6255 95.645 53.4022 94.475C55.1788 93.2617 57.3238 92.655 59.8371 92.655C67.1171 92.655 70.7571 96.5983 70.7571 104.485V126H62.8271V106.24C62.8271 101.603 60.8771 99.285 56.9771 99.285C54.7238 99.285 53.0555 99.9567 51.9721 101.3C50.3688 103.25 49.5671 106.543 49.5671 111.18V126H41.6371ZM81.6655 122.295C79.1521 119.132 77.8955 114.972 77.8955 109.815C77.8955 104.658 79.1521 100.52 81.6655 97.4C84.1788 94.2367 87.4938 92.655 91.6105 92.655C93.9505 92.655 96.0088 93.175 97.7855 94.215C99.6055 95.255 101.014 96.5767 102.01 98.18V92.33V80.5H109.94V126H102.27V121.45C101.23 123.053 99.8005 124.375 97.9805 125.415C96.1605 126.455 94.0371 126.975 91.6105 126.975C87.4938 126.975 84.1788 125.415 81.6655 122.295ZM102.4 109.815C102.4 106.305 101.664 103.618 100.19 101.755C98.7171 99.8483 96.7238 98.895 94.2105 98.895C91.6538 98.895 89.6605 99.805 88.2305 101.625C86.8005 103.402 86.0855 106.132 86.0855 109.815C86.0855 117.095 88.7938 120.735 94.2105 120.735C96.7238 120.735 98.7171 119.803 100.19 117.94C101.664 116.077 102.4 113.368 102.4 109.815ZM137.944 117.745V99.805H130.924V93.63H137.944V83.49H145.874V93.63H154.454V99.805H145.874V116.51C145.874 118.503 146.87 119.5 148.864 119.5H155.754V126H146.134C143.534 126 141.519 125.285 140.089 123.855C138.659 122.382 137.944 120.345 137.944 117.745ZM159.08 109.815C159.08 104.745 160.554 100.628 163.5 97.465C166.49 94.2583 170.239 92.655 174.745 92.655C179.339 92.655 183.022 94.215 185.795 97.335C188.569 100.412 189.955 104.398 189.955 109.295C189.955 109.988 189.912 110.812 189.825 111.765H166.945C167.075 114.755 167.855 117.008 169.285 118.525C170.715 119.998 172.6 120.735 174.94 120.735C178.494 120.735 181.137 118.785 182.87 114.885L190.02 117.55C187.507 123.833 182.459 126.975 174.875 126.975C170.065 126.975 166.23 125.458 163.37 122.425C160.51 119.348 159.08 115.145 159.08 109.815ZM167.205 105.915H181.96C181.83 103.618 181.115 101.82 179.815 100.52C178.559 99.22 176.869 98.57 174.745 98.57C172.752 98.57 171.062 99.22 169.675 100.52C168.332 101.82 167.509 103.618 167.205 105.915ZM195.197 109.75C195.197 104.723 196.779 100.628 199.942 97.465C203.105 94.2583 207.07 92.655 211.837 92.655C215.477 92.655 218.575 93.5433 221.132 95.32C223.732 97.0967 225.53 99.415 226.527 102.275L219.247 104.875C217.86 101.018 215.325 99.09 211.642 99.09C209.172 99.09 207.157 100.022 205.597 101.885C204.037 103.748 203.257 106.37 203.257 109.75C203.257 113.173 204.037 115.838 205.597 117.745C207.2 119.608 209.237 120.54 211.707 120.54C215.607 120.54 218.272 118.352 219.702 113.975L227.177 116.64C225.964 119.803 224.014 122.317 221.327 124.18C218.684 126.043 215.52 126.975 211.837 126.975C206.94 126.975 202.932 125.393 199.812 122.23C196.735 119.067 195.197 114.907 195.197 109.75ZM233.463 126V80.5H241.393V92.33V98.765C242.303 97.1617 243.56 95.775 245.163 94.605C246.853 93.305 249.15 92.655 252.053 92.655C255.52 92.655 258.142 93.695 259.918 95.775C261.695 97.855 262.583 100.758 262.583 104.485V126H254.653V106.24C254.653 101.603 252.703 99.285 248.803 99.285C246.55 99.285 244.882 99.9567 243.798 101.3C242.195 103.25 241.393 106.543 241.393 111.18V126H233.463ZM271.867 126V93.63H279.602V98.765C280.512 97.075 281.855 95.645 283.632 94.475C285.408 93.2617 287.553 92.655 290.067 92.655C297.347 92.655 300.987 96.5983 300.987 104.485V126H293.057V106.24C293.057 101.603 291.107 99.285 287.207 99.285C284.953 99.285 283.285 99.9567 282.202 101.3C280.598 103.25 279.797 106.543 279.797 111.18V126H271.867ZM309.945 88.495V80.435H318.395V88.495H309.945ZM310.27 126V93.63H318.135V126H310.27ZM325.451 109.75C325.451 104.723 327.033 100.628 330.196 97.465C333.359 94.2583 337.324 92.655 342.091 92.655C345.731 92.655 348.829 93.5433 351.386 95.32C353.986 97.0967 355.784 99.415 356.781 102.275L349.501 104.875C348.114 101.018 345.579 99.09 341.896 99.09C339.426 99.09 337.411 100.022 335.851 101.885C334.291 103.748 333.511 106.37 333.511 109.75C333.511 113.173 334.291 115.838 335.851 117.745C337.454 119.608 339.491 120.54 341.961 120.54C345.861 120.54 348.526 118.352 349.956 113.975L357.431 116.64C356.218 119.803 354.268 122.317 351.581 124.18C348.938 126.043 345.774 126.975 342.091 126.975C337.194 126.975 333.186 125.393 330.066 122.23C326.989 119.067 325.451 114.907 325.451 109.75ZM361.767 117.68C361.767 113.52 363.609 110.508 367.292 108.645C370.932 106.738 375.872 105.482 382.112 104.875V103.77C382.112 100.39 380.141 98.7 376.197 98.7C372.124 98.7 369.567 100.498 368.527 104.095L361.312 102.21C361.659 99.61 363.176 97.3783 365.862 95.515C368.549 93.6083 371.994 92.655 376.197 92.655C380.661 92.655 384.062 93.695 386.402 95.775C388.786 97.8117 389.977 100.802 389.977 104.745V117.81C389.977 118.633 390.086 119.175 390.302 119.435C390.562 119.652 391.104 119.76 391.927 119.76H394.982V126H388.872C385.319 126 383.369 124.397 383.022 121.19C380.466 125.047 376.826 126.975 372.102 126.975C369.069 126.975 366.577 126.13 364.627 124.44C362.721 122.75 361.767 120.497 361.767 117.68ZM382.112 112.675V110.075C378.039 110.508 374.962 111.267 372.882 112.35C370.846 113.39 369.827 114.907 369.827 116.9C369.827 118.2 370.239 119.218 371.062 119.955C371.929 120.648 373.142 120.995 374.702 120.995C376.826 120.995 378.581 120.28 379.967 118.85C381.397 117.377 382.112 115.318 382.112 112.675ZM402.387 117.745V99.805H395.367V93.63H402.387V83.49H410.317V93.63H418.897V99.805H410.317V116.51C410.317 118.503 411.314 119.5 413.307 119.5H420.197V126H410.577C407.977 126 405.962 125.285 404.532 123.855C403.102 122.382 402.387 120.345 402.387 117.745ZM423.524 109.815C423.524 104.745 424.997 100.628 427.944 97.465C430.934 94.2583 434.682 92.655 439.189 92.655C443.782 92.655 447.465 94.215 450.239 97.335C453.012 100.412 454.399 104.398 454.399 109.295C454.399 109.988 454.355 110.812 454.269 111.765H431.389C431.519 114.755 432.299 117.008 433.729 118.525C435.159 119.998 437.044 120.735 439.384 120.735C442.937 120.735 445.58 118.785 447.314 114.885L454.464 117.55C451.95 123.833 446.902 126.975 439.319 126.975C434.509 126.975 430.674 125.458 427.814 122.425C424.954 119.348 423.524 115.145 423.524 109.815ZM431.649 105.915H446.404C446.274 103.618 445.559 101.82 444.259 100.52C443.002 99.22 441.312 98.57 439.189 98.57C437.195 98.57 435.505 99.22 434.119 100.52C432.775 101.82 431.952 103.618 431.649 105.915ZM480.273 117.745V99.805H473.253V93.63H480.273V83.49H488.203V93.63H496.783V99.805H488.203V116.51C488.203 118.503 489.2 119.5 491.193 119.5H498.083V126H488.463C485.863 126 483.848 125.285 482.418 123.855C480.988 122.382 480.273 120.345 480.273 117.745ZM501.345 109.815C501.345 104.788 502.861 100.672 505.895 97.465C508.971 94.2583 512.893 92.655 517.66 92.655C522.426 92.655 526.326 94.2583 529.36 97.465C532.436 100.672 533.975 104.788 533.975 109.815C533.975 114.885 532.436 119.023 529.36 122.23C526.283 125.393 522.383 126.975 517.66 126.975C512.98 126.975 509.08 125.35 505.96 122.1C502.883 118.85 501.345 114.755 501.345 109.815ZM525.785 109.945C525.785 106.478 525.026 103.813 523.51 101.95C522.036 100.043 520.086 99.09 517.66 99.09C515.146 99.09 513.153 100.043 511.68 101.95C510.25 103.813 509.535 106.478 509.535 109.945C509.535 113.368 510.25 115.99 511.68 117.81C513.153 119.63 515.146 120.54 517.66 120.54C520.173 120.54 522.145 119.63 523.575 117.81C525.048 115.99 525.785 113.368 525.785 109.945ZM538.4 132.045C538.4 129.272 539.743 127.083 542.43 125.48C540.436 124.18 539.44 122.295 539.44 119.825C539.44 117.138 541.108 114.798 544.445 112.805C542.061 110.855 540.87 108.168 540.87 104.745C540.87 101.235 542.148 98.3533 544.705 96.1C547.305 93.8033 550.576 92.655 554.52 92.655C557.25 92.655 559.655 93.24 561.735 94.41C563.858 95.5367 565.44 97.0317 566.48 98.895C566.696 96.9883 567.216 95.645 568.04 94.865C568.863 94.0417 570.228 93.63 572.135 93.63H574.93V99.805H571.745C570.531 99.805 569.686 100.065 569.21 100.585C568.776 101.062 568.495 102.145 568.365 103.835L568.235 104.81C567.931 108.363 566.545 111.18 564.075 113.26C561.605 115.34 558.485 116.38 554.715 116.38C551.941 116.38 549.796 115.99 548.28 115.21C546.503 115.817 545.615 116.705 545.615 117.875C545.615 119.002 546.655 119.565 548.735 119.565H562.71C565.916 119.565 568.538 120.475 570.575 122.295C572.611 124.072 573.63 126.325 573.63 129.055C573.63 132.045 572.611 134.385 570.575 136.075C568.538 137.808 565.916 138.675 562.71 138.675H547.695C541.498 138.675 538.4 136.465 538.4 132.045ZM559.2 109.23C560.37 108.06 560.955 106.543 560.955 104.68C560.955 102.817 560.37 101.3 559.2 100.13C558.073 98.9167 556.578 98.31 554.715 98.31C552.851 98.31 551.335 98.9167 550.165 100.13C549.038 101.3 548.475 102.817 548.475 104.68C548.475 106.543 549.038 108.06 550.165 109.23C551.291 110.357 552.808 110.92 554.715 110.92C556.578 110.92 558.073 110.357 559.2 109.23ZM548.735 132.63H561.345C564.291 132.63 565.765 131.503 565.765 129.25C565.765 127.083 564.291 126 561.345 126H546.785C545.441 126.737 544.77 127.885 544.77 129.445C544.77 131.568 546.091 132.63 548.735 132.63ZM575.677 109.815C575.677 104.745 577.15 100.628 580.097 97.465C583.087 94.2583 586.835 92.655 591.342 92.655C595.935 92.655 599.619 94.215 602.392 97.335C605.165 100.412 606.552 104.398 606.552 109.295C606.552 109.988 606.509 110.812 606.422 111.765H583.542C583.672 114.755 584.452 117.008 585.882 118.525C587.312 119.998 589.197 120.735 591.537 120.735C595.09 120.735 597.734 118.785 599.467 114.885L606.617 117.55C604.104 123.833 599.055 126.975 591.472 126.975C586.662 126.975 582.827 125.458 579.967 122.425C577.107 119.348 575.677 115.145 575.677 109.815ZM583.802 105.915H598.557C598.427 103.618 597.712 101.82 596.412 100.52C595.155 99.22 593.465 98.57 591.342 98.57C589.349 98.57 587.659 99.22 586.272 100.52C584.929 101.82 584.105 103.618 583.802 105.915ZM616.557 117.745V99.805H609.537V93.63H616.557V83.49H624.487V93.63H633.067V99.805H624.487V116.51C624.487 118.503 625.484 119.5 627.477 119.5H634.367V126H624.747C622.147 126 620.132 125.285 618.702 123.855C617.272 122.382 616.557 120.345 616.557 117.745ZM640.665 126V80.5H648.595V92.33V98.765C649.505 97.1617 650.762 95.775 652.365 94.605C654.055 93.305 656.352 92.655 659.255 92.655C662.722 92.655 665.344 93.695 667.12 95.775C668.897 97.855 669.785 100.758 669.785 104.485V126H661.855V106.24C661.855 101.603 659.905 99.285 656.005 99.285C653.752 99.285 652.084 99.9567 651 101.3C649.397 103.25 648.595 106.543 648.595 111.18V126H640.665ZM676.859 109.815C676.859 104.745 678.332 100.628 681.279 97.465C684.269 94.2583 688.017 92.655 692.524 92.655C697.117 92.655 700.8 94.215 703.574 97.335C706.347 100.412 707.734 104.398 707.734 109.295C707.734 109.988 707.69 110.812 707.604 111.765H684.724C684.854 114.755 685.634 117.008 687.064 118.525C688.494 119.998 690.379 120.735 692.719 120.735C696.272 120.735 698.915 118.785 700.649 114.885L707.799 117.55C705.285 123.833 700.237 126.975 692.654 126.975C687.844 126.975 684.009 125.458 681.149 122.425C678.289 119.348 676.859 115.145 676.859 109.815ZM684.984 105.915H699.739C699.609 103.618 698.894 101.82 697.594 100.52C696.337 99.22 694.647 98.57 692.524 98.57C690.53 98.57 688.84 99.22 687.454 100.52C686.11 101.82 685.287 103.618 684.984 105.915ZM715.25 126V93.63H723.05V100.78C723.874 98.8733 725.174 97.0967 726.95 95.45C728.684 93.8467 731.154 93.045 734.36 93.045C735.01 93.045 735.725 93.11 736.505 93.24V101.365C735.509 101.192 734.339 101.105 732.995 101.105C729.572 101.105 727.08 101.993 725.52 103.77C723.96 105.547 723.18 108.407 723.18 112.35V126H715.25Z" fill="black"/>
</svg>
